<svg width="73" height="28" viewBox="0 0 73 28" fill="none" xmlns="http://www.w3.org/2000/svg">
<path d="M16.6206 6.36403H13.3405C13.1281 6.36403 12.9659 6.48867 12.9195 6.67565L8.62241 19.4953L4.58248 6.68856C4.53272 6.48811 4.37003 6.36403 4.15758 6.36403H0.38601C0.242885 6.36403 0.11765 6.42916 0.0505603 6.53865C-0.0109387 6.63915 -0.0154114 6.76043 0.0321106 6.85195L5.93099 23.3387C5.98075 23.5391 6.14344 23.6632 6.35533 23.6632H10.5865C10.7989 23.6632 10.9616 23.5386 11.0063 23.355L16.9678 6.86992C17.0226 6.75987 17.0187 6.63859 16.9566 6.53808C16.8896 6.4286 16.7638 6.36346 16.6212 6.36346L16.6206 6.36403Z" fill="#38383D"/>
<path d="M27.559 6.0343C25.5005 6.0343 23.8411 6.82093 22.6184 8.31615L22.61 6.76254C22.61 6.53907 22.4356 6.36389 22.2131 6.36389H18.7037C18.4812 6.36389 18.3068 6.53907 18.3068 6.76366L18.3722 16.3139L18.3068 27.6013C18.3068 27.8248 18.4812 27.9999 18.7037 27.9999H22.2461C22.4686 27.9999 22.643 27.8248 22.643 27.5996L22.6469 21.9416C23.8294 23.3279 25.4412 23.9927 27.4612 23.9927C31.827 23.9927 34.8768 20.2796 34.8768 14.9641C34.8768 9.64855 32.0048 6.0343 27.5596 6.0343H27.559ZM26.4112 20.9556C25.406 20.9556 24.5718 20.6266 23.9311 19.9781C22.9404 18.9747 22.4266 17.2072 22.4462 14.8669C22.4775 11.0972 23.8719 9.10447 26.4772 9.10447C28.316 9.10447 30.5082 10.1612 30.5082 15.1948C30.5082 18.9101 29.0534 20.9562 26.4118 20.9562L26.4112 20.9556Z" fill="#38383D"/>
<path d="M51.5587 18.4886C51.5587 21.8524 48.5184 24.0242 43.8137 24.0242C39.109 24.0242 36.5182 22.2668 35.9513 19.0428C35.9083 18.7974 36.0972 18.5711 36.3455 18.5711H39.7559C39.9376 18.5711 40.0964 18.6958 40.1405 18.8732C40.5324 20.4448 41.7949 21.1848 44.0435 21.1848C46.2921 21.1848 47.4511 20.3235 47.4511 18.8187C47.4511 17.314 45.4719 16.9574 43.1808 16.5812C40.0874 16.0742 36.2359 15.4431 36.2359 11.3073C36.2359 7.93613 38.853 6.00183 43.4201 6.00183C47.4108 6.00183 50.019 7.53635 50.7642 10.2623C50.8296 10.501 50.6457 10.7368 50.3997 10.7368H47.0077C46.8629 10.7368 46.7271 10.6554 46.6689 10.5223C46.1691 9.37127 45.0414 8.77329 43.3547 8.77329C41.9799 8.77329 40.3412 9.16914 40.3412 11.045C40.3412 12.4965 42.265 12.7901 44.493 13.1298C47.6417 13.6104 51.5592 14.2073 51.5592 18.4886H51.5587Z" fill="#38383D"/>
<path d="M62.3236 0H55.8875V4.31553H67.3967C68.1347 4.31553 68.7329 4.92698 68.7329 5.68105V17.2666H72.9998V10.722C72.9998 4.80009 68.2197 0 62.3236 0Z" fill="#8229E3"/>
<path d="M55.8885 6.46173V10.7183H61.2093C61.8881 10.7183 62.4382 11.2803 62.4382 11.9743V17.2668H66.6481C66.6056 11.3174 61.8126 6.5044 55.8885 6.46173Z" fill="#8229E3"/>
</svg>
